<svg width="0" height="0" class="hidden">
  <symbol xmlns="http://www.w3.org/2000/svg" viewBox="0 0 612 612" id="facebook">
    <path
      d="M612 306C612 137 474.99 0 306 0S0 137 0 306s137 306 306 306 306-137 306-306Zm-584.18 0C27.82 152.36 152.36 27.82 306 27.82S584.18 152.36 584.18 306 459.64 584.18 306 584.18 27.82 459.64 27.82 306Z" />
    <path
      d="M317.74 482.62V306h58.28l9.21-58.53h-67.49v-29.35c0-15.27 5.01-29.85 26.93-29.85h43.81v-58.42h-62.2c-52.3 0-66.57 34.44-66.57 82.17v35.41h-35.88v58.56h35.88v176.62h58.03Z" />
  </symbol>
  <symbol xmlns="http://www.w3.org/2000/svg" viewBox="0 0 612 612" id="twitter">
    <path
      d="M612 306C612 137 474.99 0 306 0S0 137 0 306s137 306 306 306 306-137 306-306Zm-584.18 0C27.82 152.36 152.36 27.82 306 27.82S584.18 152.36 584.18 306 459.64 584.18 306 584.18 27.82 459.64 27.82 306Z" />
    <path
      d="M437.21 245.17c0-3.09-.06-6.15-.2-9.18 13.21-9.85 24.68-22.17 33.74-36.28a129.71 129.71 0 0 1-38.83 10.63c13.96-8.6 24.67-22.34 29.74-38.83-13.08 7.93-27.54 13.6-42.93 16.55-12.32-14.02-29.9-22.95-49.35-23.28-37.33-.61-67.6 30.93-67.6 70.46 0 5.62.58 11.07 1.75 16.33-56.22-3.62-106.04-32.88-139.37-77-5.81 10.57-9.15 22.92-9.15 36.16 0 25.04 11.93 47.29 30.07 60.42-11.1-.5-21.5-3.87-30.63-9.37v.92c0 35 23.31 64.32 54.25 71.16a64.02 64.02 0 0 1-17.8 2.42c-4.37-.03-8.6-.5-12.71-1.39 8.6 28.68 33.58 49.63 63.15 50.32-23.14 19.19-52.3 30.65-83.95 30.57-5.45 0-10.85-.36-16.13-1.03 29.93 20.53 65.46 32.49 103.65 32.49 124.32.03 192.31-108.18 192.31-202.07Z" />
  </symbol>
  <symbol xmlns="http://www.w3.org/2000/svg" viewBox="0 0 612 612" id="instagram">
    <path
      d="M612 306C612 137 474.99 0 306 0S0 137 0 306s137 306 306 306 306-137 306-306Zm-584.18 0C27.82 152.36 152.36 27.82 306 27.82S584.18 152.36 584.18 306 459.64 584.18 306 584.18 27.82 459.64 27.82 306Z" />
    <path
      d="M373.56 159H238.44c-43.8 0-79.44 35.64-79.44 79.44v135.12c0 43.8 35.64 79.44 79.44 79.44h135.12c43.8 0 79.44-35.64 79.44-79.44V238.44c0-43.8-35.64-79.44-79.44-79.44Zm55.69 214.56c0 30.71-24.98 55.69-55.69 55.69H238.44c-30.71 0-55.69-24.98-55.69-55.69V238.44c0-30.71 24.98-55.69 55.69-55.69h135.12c30.71 0 55.69 24.98 55.69 55.69v135.12Z" />
    <path
      d="M371.8 295.75c-2.09-14.1-8.52-26.87-18.6-36.95-10.08-10.08-22.85-16.51-36.95-18.6-6.42-.95-12.92-.95-19.34 0-17.42 2.58-32.79 11.79-43.28 25.94-10.49 14.14-14.85 31.53-12.26 48.94 2.58 17.42 11.79 32.79 25.94 43.28 11.48 8.52 25.1 12.99 39.13 12.99 3.25 0 6.53-.24 9.81-.73 17.42-2.58 32.79-11.79 43.28-25.94 10.49-14.14 14.85-31.53 12.26-48.94Zm-59.03 51.39c-11.14 1.66-22.26-1.13-31.31-7.84-9.05-6.71-14.94-16.54-16.59-27.69-1.65-11.14 1.13-22.26 7.84-31.31 6.71-9.05 16.54-14.94 27.69-16.59 2.05-.3 4.12-.46 6.19-.46s4.13.15 6.19.46c18.51 2.74 32.79 17.02 35.53 35.53 3.41 23-12.53 44.49-35.53 47.9ZM388.72 223.28c-2.21-2.21-5.27-3.48-8.4-3.48s-6.19 1.27-8.4 3.48-3.48 5.27-3.48 8.4 1.27 6.19 3.48 8.4 5.27 3.48 8.4 3.48 6.19-1.27 8.4-3.48 3.48-5.27 3.48-8.4-1.27-6.19-3.48-8.4Z" />
  </symbol>

  <symbol xmlns="http://www.w3.org/2000/svg" viewBox="0 0 20 16.01" id="arrow_right">
    <path
      d="M1 9.01h15.59L11.3 14.3a.996.996 0 1 0 1.41 1.41l7-7a.996.996 0 0 0 0-1.41l-7-6.99A.987.987 0 0 0 11.3.29a.987.987 0 0 0-.02 1.41l.02.02 5.29 5.29H1c-.55 0-1 .45-1 .1 0 1.46.45 1.9 1 1.9Z"/>
  </symbol>
  <symbol xmlns="http://www.w3.org/2000/svg" viewBox="0 0 343 343" id="angle_right">
    <path
      d="M312.5 0h-282C13.66 0 0 13.66 0 30.5v282C0 329.34 13.66 343 30.5 343h282c16.84 0 30.5-13.66 30.5-30.5v-282C343 13.66 329.34 0 312.5 0Zm-74.2 175.34c-.68 2.04-2.03 4.04-3.56 5.58-33.69 33.8-67.44 67.55-101.22 101.27-5.67 5.67-13.02 5.64-18.75.09-2.68-2.6-5.4-5.19-7.82-8.03-4.07-4.79-3.87-11.43.24-16.22.63-.74 1.32-1.43 2.01-2.11 27.45-27.46 54.9-54.91 82.37-82.35.63-.63 1.38-1.15 2.57-2.72-.79-.43-1.74-.7-2.35-1.31-27.74-27.69-55.46-55.41-83.17-83.14-5.17-5.17-6.2-12.3-1.95-17.14 4.34-4.93 8.41-10.35 15.01-12.68h4.94c4.14 1.3 7.06 4.24 10.03 7.21 32.51 32.56 65.03 65.09 97.6 97.59 4 3.99 5.87 8.52 4.04 13.98Z"/>
  </symbol>
</svg>